<svg width="1234" height="183" viewBox="0 0 1234 183" fill="none" xmlns="http://www.w3.org/2000/svg">
<g clip-path="url(#clip0_748_1954)">
<path d="M60.56 4.56C63.08 4.68 66.38 4.8 70.46 4.91999C74.54 5.03999 78.56 5.09999 82.52 5.09999C88.16 5.09999 93.56 5.03999 98.72 4.91999C103.88 4.8 107.54 4.74 109.7 4.74C124.22 4.74 135.08 8.04 142.28 14.64C149.48 21.24 153.08 29.76 153.08 40.2C153.08 44.52 152.36 49.08 150.92 53.88C149.48 58.56 146.96 62.94 143.36 67.02C139.88 70.98 135.08 74.22 128.96 76.74C122.84 79.26 115.1 80.52 105.74 80.52H88.46V76.92H103.94C112.46 76.92 118.94 75.3 123.38 72.06C127.94 68.82 131 64.56 132.56 59.28C134.24 54 135.08 48.3 135.08 42.18C135.08 30.78 132.8 22.26 128.24 16.62C123.8 10.98 116.12 8.16 105.2 8.16C99.68 8.16 96.08 9.18 94.4 11.22C92.72 13.26 91.88 17.4 91.88 23.64V112.92C91.88 117.24 92.3 120.48 93.14 122.64C94.1 124.8 95.9 126.24 98.54 126.96C101.18 127.68 105.02 128.16 110.06 128.4V132C106.94 131.76 102.98 131.64 98.18 131.64C93.38 131.52 88.52 131.46 83.6 131.46C78.92 131.46 74.54 131.52 70.46 131.64C66.38 131.64 63.08 131.76 60.56 132V128.4C64.64 128.16 67.7 127.68 69.74 126.96C71.9 126.24 73.34 124.8 74.06 122.64C74.78 120.48 75.14 117.24 75.14 112.92V23.64C75.14 19.2 74.78 15.96 74.06 13.92C73.34 11.76 71.9 10.32 69.74 9.6C67.7 8.76 64.64 8.27999 60.56 8.16V4.56ZM211.753 4.56V8.16C207.673 8.27999 204.553 8.76 202.393 9.6C200.353 10.32 198.973 11.76 198.253 13.92C197.533 15.96 197.173 19.2 197.173 23.64V112.92C197.173 117.24 197.533 120.48 198.253 122.64C198.973 124.8 200.353 126.24 202.393 126.96C204.553 127.56 207.673 127.86 211.753 127.86H224.893C230.533 127.86 235.093 127.26 238.573 126.06C242.173 124.86 244.993 123 247.033 120.48C249.193 117.84 250.813 114.36 251.893 110.04C252.973 105.72 253.813 100.44 254.413 94.2H258.553C258.193 97.92 258.013 102.84 258.013 108.96C258.013 111.24 258.073 114.54 258.193 118.86C258.433 123.06 258.793 127.44 259.273 132C253.153 131.76 246.253 131.64 238.573 131.64C230.893 131.52 224.053 131.46 218.053 131.46C215.413 131.46 211.993 131.46 207.793 131.46C203.713 131.46 199.273 131.52 194.473 131.64C189.673 131.64 184.813 131.7 179.893 131.82C174.973 131.82 170.293 131.88 165.853 132V128.4C169.933 128.16 172.993 127.68 175.033 126.96C177.193 126.24 178.633 124.8 179.353 122.64C180.073 120.48 180.433 117.24 180.433 112.92V23.64C180.433 19.2 180.073 15.96 179.353 13.92C178.633 11.76 177.193 10.32 175.033 9.6C172.993 8.76 169.933 8.27999 165.853 8.16V4.56C168.373 4.68 171.673 4.8 175.753 4.91999C179.833 5.03999 184.213 5.09999 188.893 5.09999C193.093 5.09999 197.233 5.03999 201.313 4.91999C205.513 4.8 208.993 4.68 211.753 4.56ZM322.253 3.65999L366.173 116.88C367.973 121.44 370.013 124.5 372.293 126.06C374.573 127.5 376.673 128.28 378.593 128.4V132C376.193 131.76 373.253 131.64 369.773 131.64C366.293 131.52 362.813 131.46 359.333 131.46C354.653 131.46 350.273 131.52 346.193 131.64C342.113 131.64 338.813 131.76 336.293 132V128.4C342.413 128.16 346.313 127.14 347.993 125.34C349.673 123.42 349.313 119.4 346.913 113.28L313.433 23.82L316.313 21.48L284.993 102.84C283.073 107.64 281.933 111.72 281.573 115.08C281.213 118.32 281.513 120.9 282.473 122.82C283.553 124.74 285.293 126.12 287.693 126.96C290.213 127.8 293.333 128.28 297.053 128.4V132C293.693 131.76 290.153 131.64 286.433 131.64C282.833 131.52 279.473 131.46 276.353 131.46C273.353 131.46 270.773 131.52 268.613 131.64C266.573 131.64 264.653 131.76 262.853 132V128.4C265.253 127.8 267.713 126.42 270.233 124.26C272.753 121.98 275.033 118.14 277.073 112.74L319.373 3.65999C319.853 3.65999 320.333 3.65999 320.813 3.65999C321.293 3.65999 321.773 3.65999 322.253 3.65999ZM344.213 80.16V83.76H290.573L292.373 80.16H344.213ZM474.367 4.56V8.16C472.087 8.64 469.807 10.14 467.527 12.66C465.247 15.06 462.727 18.9 459.967 24.18L423.607 96.18H420.547L378.427 18.42C376.027 13.98 373.987 11.22 372.307 10.14C370.747 8.93999 369.307 8.33999 367.987 8.33999V4.56C370.387 4.68 372.847 4.8 375.367 4.91999C378.007 5.03999 380.827 5.09999 383.827 5.09999C387.787 5.09999 391.987 5.09999 396.427 5.09999C400.987 4.97999 405.187 4.8 409.027 4.56V8.33999C406.027 8.33999 403.387 8.69999 401.107 9.41999C398.827 10.14 397.327 11.46 396.607 13.38C395.887 15.3 396.427 18 398.227 21.48L428.647 79.8L427.207 80.88L451.147 33.18C454.507 26.58 456.127 21.48 456.007 17.88C456.007 14.28 454.627 11.82 451.867 10.5C449.107 9.05999 445.207 8.27999 440.167 8.16V4.56C443.647 4.68 447.187 4.8 450.787 4.91999C454.387 5.03999 457.747 5.09999 460.867 5.09999C463.987 5.09999 466.567 5.03999 468.607 4.91999C470.647 4.8 472.567 4.68 474.367 4.56ZM431.707 77.28V112.92C431.707 117.24 432.067 120.48 432.787 122.64C433.507 124.8 434.887 126.24 436.927 126.96C439.087 127.68 442.207 128.16 446.287 128.4V132C443.527 131.76 440.047 131.64 435.847 131.64C431.767 131.52 427.627 131.46 423.427 131.46C418.747 131.46 414.367 131.52 410.287 131.64C406.207 131.64 402.907 131.76 400.387 132V128.4C404.467 128.16 407.527 127.68 409.567 126.96C411.727 126.24 413.167 124.8 413.887 122.64C414.607 120.48 414.967 117.24 414.967 112.92V76.02L424.687 87.18L431.707 77.28ZM581.435 4.56C580.955 9.12 580.595 13.56 580.355 17.88C580.235 22.08 580.175 25.32 580.175 27.6C580.175 30.48 580.235 33.18 580.355 35.7C580.475 38.22 580.595 40.44 580.715 42.36H576.575C575.735 33.96 574.595 27.36 573.155 22.56C571.715 17.64 569.195 14.1 565.595 11.94C561.995 9.77999 556.415 8.69999 548.855 8.69999H539.135V111.12C539.135 115.92 539.555 119.52 540.395 121.92C541.355 124.32 543.155 125.94 545.795 126.78C548.435 127.62 552.275 128.16 557.315 128.4V132C554.195 131.76 550.235 131.64 545.435 131.64C540.635 131.52 535.775 131.46 530.855 131.46C525.455 131.46 520.355 131.52 515.555 131.64C510.875 131.64 507.095 131.76 504.215 132V128.4C509.255 128.16 513.095 127.62 515.735 126.78C518.375 125.94 520.115 124.32 520.955 121.92C521.915 119.52 522.395 115.92 522.395 111.12V8.69999H512.675C505.235 8.69999 499.655 9.77999 495.935 11.94C492.335 14.1 489.815 17.64 488.375 22.56C486.935 27.36 485.795 33.96 484.955 42.36H480.815C481.055 40.44 481.175 38.22 481.175 35.7C481.295 33.18 481.355 30.48 481.355 27.6C481.355 25.32 481.235 22.08 480.995 17.88C480.875 13.56 480.575 9.12 480.095 4.56C485.135 4.68 490.595 4.8 496.475 4.91999C502.475 5.03999 508.475 5.09999 514.475 5.09999C520.475 5.09999 525.935 5.09999 530.855 5.09999C535.775 5.09999 541.175 5.09999 547.055 5.09999C553.055 5.09999 559.055 5.03999 565.055 4.91999C571.055 4.8 576.515 4.68 581.435 4.56ZM636.374 3.65999L680.294 116.88C682.094 121.44 684.134 124.5 686.414 126.06C688.694 127.5 690.794 128.28 692.714 128.4V132C690.314 131.76 687.374 131.64 683.894 131.64C680.414 131.52 676.934 131.46 673.454 131.46C668.774 131.46 664.394 131.52 660.314 131.64C656.234 131.64 652.934 131.76 650.414 132V128.4C656.534 128.16 660.434 127.14 662.114 125.34C663.794 123.42 663.434 119.4 661.034 113.28L627.554 23.82L630.434 21.48L599.114 102.84C597.194 107.64 596.054 111.72 595.694 115.08C595.334 118.32 595.634 120.9 596.594 122.82C597.674 124.74 599.414 126.12 601.814 126.96C604.334 127.8 607.454 128.28 611.174 128.4V132C607.814 131.76 604.274 131.64 600.554 131.64C596.954 131.52 593.594 131.46 590.474 131.46C587.474 131.46 584.894 131.52 582.734 131.64C580.694 131.64 578.774 131.76 576.974 132V128.4C579.374 127.8 581.834 126.42 584.354 124.26C586.874 121.98 589.154 118.14 591.194 112.74L633.494 3.65999C633.974 3.65999 634.454 3.65999 634.934 3.65999C635.414 3.65999 635.894 3.65999 636.374 3.65999ZM658.334 80.16V83.76H604.694L606.494 80.16H658.334ZM737.693 2.57999C743.693 2.57999 748.253 3.29999 751.373 4.74C754.493 6.05999 757.253 7.55999 759.653 9.23999C761.093 10.08 762.233 10.74 763.073 11.22C764.033 11.58 764.933 11.76 765.773 11.76C766.973 11.76 767.813 11.1 768.293 9.78C768.893 8.45999 769.373 6.47999 769.733 3.84H773.873C773.753 5.87999 773.573 8.33999 773.333 11.22C773.213 13.98 773.093 17.7 772.973 22.38C772.973 26.94 772.973 33 772.973 40.56H768.833C768.473 34.8 767.213 29.28 765.053 24C762.893 18.72 759.713 14.4 755.513 11.04C751.433 7.67999 746.033 5.99999 739.313 5.99999C732.953 5.99999 727.673 7.91999 723.473 11.76C719.393 15.6 717.353 20.64 717.353 26.88C717.353 32.28 718.733 36.84 721.493 40.56C724.253 44.16 727.913 47.46 732.473 50.46C737.153 53.34 742.193 56.46 747.593 59.82C753.833 63.66 759.353 67.5 764.153 71.34C769.073 75.06 772.913 79.2 775.673 83.76C778.553 88.32 779.993 93.84 779.993 100.32C779.993 108 778.253 114.36 774.773 119.4C771.293 124.44 766.673 128.22 760.913 130.74C755.153 133.26 748.793 134.52 741.833 134.52C735.473 134.52 730.433 133.8 726.713 132.36C722.993 130.92 719.813 129.42 717.173 127.86C714.533 126.18 712.493 125.34 711.053 125.34C709.853 125.34 708.953 126 708.353 127.32C707.873 128.64 707.453 130.62 707.093 133.26H702.953C703.193 130.74 703.313 127.8 703.313 124.44C703.433 120.96 703.493 116.46 703.493 110.94C703.613 105.42 703.673 98.46 703.673 90.06H707.813C708.293 97.26 709.613 103.98 711.773 110.22C714.053 116.46 717.473 121.5 722.033 125.34C726.713 129.06 732.893 130.92 740.573 130.92C744.533 130.92 748.253 130.14 751.733 128.58C755.333 126.9 758.273 124.32 760.553 120.84C762.833 117.24 763.973 112.62 763.973 106.98C763.973 102.06 762.773 97.8 760.373 94.2C758.093 90.48 754.853 87.06 750.653 83.94C746.453 80.7 741.533 77.4 735.893 74.04C730.253 70.56 724.973 67.02 720.053 63.42C715.133 59.82 711.173 55.68 708.173 51C705.293 46.2 703.853 40.44 703.853 33.72C703.853 26.64 705.413 20.82 708.533 16.26C711.773 11.58 715.973 8.15999 721.133 5.99999C726.293 3.71999 731.813 2.57999 737.693 2.57999ZM895.38 4.56C894.9 9.12 894.54 13.56 894.3 17.88C894.18 22.08 894.12 25.32 894.12 27.6C894.12 30.48 894.18 33.18 894.3 35.7C894.42 38.22 894.54 40.44 894.66 42.36H890.52C889.68 33.96 888.54 27.36 887.1 22.56C885.66 17.64 883.14 14.1 879.54 11.94C875.94 9.77999 870.36 8.69999 862.8 8.69999H853.08V111.12C853.08 115.92 853.5 119.52 854.34 121.92C855.3 124.32 857.1 125.94 859.74 126.78C862.38 127.62 866.22 128.16 871.26 128.4V132C868.14 131.76 864.18 131.64 859.38 131.64C854.58 131.52 849.72 131.46 844.8 131.46C839.4 131.46 834.3 131.52 829.5 131.64C824.82 131.64 821.04 131.76 818.16 132V128.4C823.2 128.16 827.04 127.62 829.68 126.78C832.32 125.94 834.06 124.32 834.9 121.92C835.86 119.52 836.34 115.92 836.34 111.12V8.69999H826.62C819.18 8.69999 813.6 9.77999 809.88 11.94C806.28 14.1 803.76 17.64 802.32 22.56C800.88 27.36 799.74 33.96 798.9 42.36H794.76C795 40.44 795.12 38.22 795.12 35.7C795.24 33.18 795.3 30.48 795.3 27.6C795.3 25.32 795.18 22.08 794.94 17.88C794.82 13.56 794.52 9.12 794.04 4.56C799.08 4.68 804.54 4.8 810.42 4.91999C816.42 5.03999 822.42 5.09999 828.42 5.09999C834.42 5.09999 839.88 5.09999 844.8 5.09999C849.72 5.09999 855.12 5.09999 861 5.09999C867 5.09999 873 5.03999 879 4.91999C885 4.8 890.46 4.68 895.38 4.56ZM954.077 4.56V8.16C949.997 8.27999 946.877 8.76 944.717 9.6C942.677 10.32 941.297 11.76 940.577 13.92C939.857 15.96 939.497 19.2 939.497 23.64V112.92C939.497 117.24 939.857 120.48 940.577 122.64C941.297 124.8 942.677 126.24 944.717 126.96C946.877 127.68 949.997 128.16 954.077 128.4V132C951.317 131.76 947.837 131.64 943.637 131.64C939.557 131.52 935.417 131.46 931.217 131.46C926.537 131.46 922.157 131.52 918.077 131.64C913.997 131.64 910.697 131.76 908.177 132V128.4C912.257 128.16 915.317 127.68 917.357 126.96C919.517 126.24 920.957 124.8 921.677 122.64C922.397 120.48 922.757 117.24 922.757 112.92V23.64C922.757 19.2 922.397 15.96 921.677 13.92C920.957 11.76 919.517 10.32 917.357 9.6C915.317 8.76 912.257 8.27999 908.177 8.16V4.56C910.697 4.68 913.997 4.8 918.077 4.91999C922.157 5.03999 926.537 5.09999 931.217 5.09999C935.417 5.09999 939.557 5.03999 943.637 4.91999C947.837 4.8 951.317 4.68 954.077 4.56ZM1026.99 2.03999C1034.91 2.03999 1041.39 3.23999 1046.43 5.64C1051.59 7.92 1056.15 10.62 1060.11 13.74C1062.51 15.54 1064.31 15.78 1065.51 14.46C1066.83 13.02 1067.73 9.72 1068.21 4.56H1072.35C1072.11 9 1071.93 14.4 1071.81 20.76C1071.69 27.12 1071.63 35.52 1071.63 45.96H1067.49C1066.65 40.8 1065.87 36.72 1065.15 33.72C1064.43 30.6 1063.53 27.96 1062.45 25.8C1061.49 23.64 1060.17 21.48 1058.49 19.32C1054.77 14.4 1050.09 10.86 1044.45 8.69999C1038.81 6.41999 1032.87 5.27999 1026.63 5.27999C1020.75 5.27999 1015.41 6.77999 1010.61 9.78C1005.93 12.66 1001.85 16.86 998.367 22.38C995.007 27.9 992.367 34.56 990.447 42.36C988.647 50.16 987.747 58.92 987.747 68.64C987.747 78.72 988.767 87.66 990.807 95.46C992.847 103.14 995.667 109.62 999.267 114.9C1002.99 120.18 1007.31 124.2 1012.23 126.96C1017.27 129.6 1022.67 130.92 1028.43 130.92C1033.83 130.92 1039.47 129.84 1045.35 127.68C1051.23 125.52 1055.85 122.04 1059.21 117.24C1061.85 113.76 1063.65 109.98 1064.61 105.9C1065.69 101.82 1066.65 96.12 1067.49 88.8H1071.63C1071.63 99.72 1071.69 108.54 1071.81 115.26C1071.93 121.86 1072.11 127.44 1072.35 132H1068.21C1067.73 126.84 1066.89 123.6 1065.69 122.28C1064.61 120.96 1062.75 121.14 1060.11 122.82C1055.67 125.94 1050.93 128.7 1045.89 131.1C1040.97 133.38 1034.61 134.52 1026.81 134.52C1015.41 134.52 1005.39 131.94 996.747 126.78C988.227 121.62 981.567 114.18 976.767 104.46C972.087 94.74 969.747 83.04 969.747 69.36C969.747 55.92 972.207 44.16 977.127 34.08C982.047 24 988.767 16.14 997.287 10.5C1005.93 4.85999 1015.83 2.03999 1026.99 2.03999ZM1130.21 2.57999C1136.21 2.57999 1140.77 3.29999 1143.89 4.74C1147.01 6.05999 1149.77 7.55999 1152.17 9.23999C1153.61 10.08 1154.75 10.74 1155.59 11.22C1156.55 11.58 1157.45 11.76 1158.29 11.76C1159.49 11.76 1160.33 11.1 1160.81 9.78C1161.41 8.45999 1161.89 6.47999 1162.25 3.84H1166.39C1166.27 5.87999 1166.09 8.33999 1165.85 11.22C1165.73 13.98 1165.61 17.7 1165.49 22.38C1165.49 26.94 1165.49 33 1165.49 40.56H1161.35C1160.99 34.8 1159.73 29.28 1157.57 24C1155.41 18.72 1152.23 14.4 1148.03 11.04C1143.95 7.67999 1138.55 5.99999 1131.83 5.99999C1125.47 5.99999 1120.19 7.91999 1115.99 11.76C1111.91 15.6 1109.87 20.64 1109.87 26.88C1109.87 32.28 1111.25 36.84 1114.01 40.56C1116.77 44.16 1120.43 47.46 1124.99 50.46C1129.67 53.34 1134.71 56.46 1140.11 59.82C1146.35 63.66 1151.87 67.5 1156.67 71.34C1161.59 75.06 1165.43 79.2 1168.19 83.76C1171.07 88.32 1172.51 93.84 1172.51 100.32C1172.51 108 1170.77 114.36 1167.29 119.4C1163.81 124.44 1159.19 128.22 1153.43 130.74C1147.67 133.26 1141.31 134.52 1134.35 134.52C1127.99 134.52 1122.95 133.8 1119.23 132.36C1115.51 130.92 1112.33 129.42 1109.69 127.86C1107.05 126.18 1105.01 125.34 1103.57 125.34C1102.37 125.34 1101.47 126 1100.87 127.32C1100.39 128.64 1099.97 130.62 1099.61 133.26H1095.47C1095.71 130.74 1095.83 127.8 1095.83 124.44C1095.95 120.96 1096.01 116.46 1096.01 110.94C1096.13 105.42 1096.19 98.46 1096.19 90.06H1100.33C1100.81 97.26 1102.13 103.98 1104.29 110.22C1106.57 116.46 1109.99 121.5 1114.55 125.34C1119.23 129.06 1125.41 130.92 1133.09 130.92C1137.05 130.92 1140.77 130.14 1144.25 128.58C1147.85 126.9 1150.79 124.32 1153.07 120.84C1155.35 117.24 1156.49 112.62 1156.49 106.98C1156.49 102.06 1155.29 97.8 1152.89 94.2C1150.61 90.48 1147.37 87.06 1143.17 83.94C1138.97 80.7 1134.05 77.4 1128.41 74.04C1122.77 70.56 1117.49 67.02 1112.57 63.42C1107.65 59.82 1103.69 55.68 1100.69 51C1097.81 46.2 1096.37 40.44 1096.37 33.72C1096.37 26.64 1097.93 20.82 1101.05 16.26C1104.29 11.58 1108.49 8.15999 1113.65 5.99999C1118.81 3.71999 1124.33 2.57999 1130.21 2.57999Z" fill="#385762"/>
<path d="M5 54V178H1229V54" stroke="#A72A2A" stroke-width="4"/>
</g>
<defs>
<clipPath id="clip0_748_1954">
<rect width="1234" height="183" fill="white"/>
</clipPath>
</defs>
</svg>
